# xmcd
#
# Track frame offsets:
#	150
#	21825
#	40657
#	58527
#	73842
#	95872
#	111765
#	129042
#	148402
#	167007
#
# Disc length: 2558 seconds
#
# Revision: 3
# Processed by: cddbd v1.5.2PL0 Copyright (c) Steve Scherf et al.
# Submitted via: EZCDAudioConverter 6.0.7.1
#
DISCID=8c09fc0a
DTITLE=Ther Oak Ridge Boys - Seasons
DYEAR=1992
DGENRE=Country
TTITLE0=Seasons
TTITLE1=What Are You Doing In My Dreams
TTITLE2=Bedtime
TTITLE3=Hidin' Place
TTITLE4=Don't Break The Code
TTITLE5=Juliet
TTITLE6=You Made A Rock Of A Rolling Stone
TTITLE7=Take A Step (Yesterday Waltz)
TTITLE8=What You Do To Me
TTITLE9=Everybody Wins
EXTD=
EXTT0=
EXTT1=
EXTT2=
EXTT3=
EXTT4=
EXTT5=
EXTT6=
EXTT7=
EXTT8=
EXTT9=
PLAYORDER=
